<svg width="95" height="31" viewBox="0 0 95 31" fill="none" xmlns="http://www.w3.org/2000/svg">
<path d="M7.93361 18.0198L5.69991 14.5L11.4712 14.2441C12.3441 14.2055 13.1917 13.9389 13.9294 13.4707C14.6672 13.0025 15.2694 12.3492 15.676 11.5758L18.3656 6.46387L20.5986 9.98267C20.6428 10.0519 20.6728 10.1292 20.6871 10.2101C20.7013 10.291 20.6995 10.3739 20.6816 10.4541L20.6802 10.4565L20.6801 10.461L20.6767 10.472L20.6672 10.5106L20.6323 10.6423C20.5866 10.7983 20.5361 10.9528 20.4807 11.1056C20.2864 11.6373 20.0478 12.1517 19.7674 12.6435C18.8408 14.2708 17.5265 15.644 15.9412 16.6409C14.3642 17.6507 12.562 18.2553 10.695 18.4008C10.131 18.4447 9.56431 18.4414 9.00091 18.3907C8.79351 18.3717 8.58701 18.3437 8.38211 18.3067L8.34311 18.2989C8.25971 18.2818 8.18061 18.2484 8.11031 18.2005C8.04001 18.1526 7.97991 18.0912 7.93361 18.0198ZM19.4372 1.73926L14.5697 10.9943C14.2647 11.5743 13.8131 12.0643 13.2598 12.4154C12.7064 12.7666 12.0708 12.9666 11.4161 12.9955L2.04795 13.411L5.15301 18.3039C5.24181 18.4439 5.27141 18.6134 5.23521 18.7752C5.19901 18.9369 5.10011 19.0777 4.96011 19.1665C4.82021 19.2553 4.65071 19.2849 4.48891 19.2488C4.32711 19.2126 4.18641 19.1137 4.09751 18.9737L0.413848 13.1689C0.353418 13.0738 0.319828 12.9641 0.316628 12.8514C0.313428 12.7388 0.340738 12.6274 0.395668 12.529L5.25561 3.28767C5.56031 2.70747 6.01181 2.21717 6.56521 1.86605C7.11861 1.51487 7.75441 1.31503 8.40921 1.28646L18.8565 0.82421C18.9663 0.81939 19.0755 0.84362 19.1729 0.89445C19.2704 0.94529 19.3527 1.02092 19.4116 1.11373C19.4705 1.20654 19.5039 1.31323 19.5084 1.42306C19.5129 1.53288 19.4883 1.64195 19.4372 1.73926Z" fill="black"/>
<path d="M25.43 20.5469H22.3192C22.2624 20.1444 22.1464 19.7869 21.9712 19.4744C21.796 19.1572 21.5711 18.8873 21.2965 18.6648C21.0219 18.4422 20.7047 18.2718 20.3448 18.1534C19.9897 18.035 19.6038 17.9759 19.1871 17.9759C18.4343 17.9759 17.7785 18.1629 17.2198 18.5369C16.6611 18.9062 16.2279 19.446 15.9201 20.1562C15.6123 20.8617 15.4585 21.7187 15.4585 22.7273C15.4585 23.7642 15.6123 24.6354 15.9201 25.3409C16.2326 26.0464 16.6682 26.5791 17.2269 26.9389C17.7856 27.2988 18.4319 27.4787 19.1658 27.4787C19.5778 27.4787 19.9589 27.4242 20.3093 27.3153C20.6644 27.2064 20.9793 27.0478 21.2539 26.8395C21.5285 26.6264 21.7558 26.3684 21.9357 26.0653C22.1204 25.7623 22.2482 25.4167 22.3192 25.0284L25.43 25.0426C25.3496 25.7102 25.1483 26.3542 24.8263 26.9744C24.5091 27.59 24.0806 28.1416 23.5408 28.6293C23.0058 29.1122 22.3666 29.4957 21.6232 29.7798C20.8846 30.0592 20.0489 30.1989 19.1161 30.1989C17.8188 30.1989 16.6587 29.9053 15.636 29.3182C14.618 28.7311 13.8131 27.8812 13.2212 26.7685C12.6341 25.6558 12.3406 24.3087 12.3406 22.7273C12.3406 21.1411 12.6388 19.7917 13.2354 18.679C13.832 17.5663 14.6417 16.7187 15.6644 16.1364C16.6871 15.5492 17.8377 15.2557 19.1161 15.2557C19.9589 15.2557 20.7402 15.3741 21.4599 15.6108C22.1843 15.8475 22.8259 16.1932 23.3846 16.6477C23.9433 17.0975 24.3978 17.6491 24.7482 18.3026C25.1033 18.956 25.3306 19.7041 25.43 20.5469ZM29.869 30H26.5735L31.5948 15.4545H35.5579L40.5721 30H37.2766L33.6332 18.7784H33.5195L29.869 30ZM29.663 24.2827H37.4471V26.6832H29.663V24.2827ZM42.3228 30V15.4545H48.0614C49.1599 15.4545 50.0974 15.651 50.8739 16.044C51.6552 16.4323 52.2494 16.9839 52.6566 17.6989C53.0685 18.4091 53.2745 19.2448 53.2745 20.206C53.2745 21.1719 53.0662 22.0028 52.6495 22.6989C52.2328 23.3902 51.6291 23.9205 50.8384 24.2898C50.0524 24.6591 49.1007 24.8438 47.9833 24.8438H44.141V22.3722H47.4862C48.0733 22.3722 48.561 22.2917 48.9492 22.1307C49.3375 21.9697 49.6263 21.7282 49.8157 21.4062C50.0098 21.0843 50.1069 20.6842 50.1069 20.206C50.1069 19.723 50.0098 19.3158 49.8157 18.9844C49.6263 18.6529 49.3351 18.402 48.9421 18.2315C48.5539 18.0563 48.0638 17.9688 47.4719 17.9688H45.3981V30H42.3228ZM50.1779 23.3807L53.793 30H50.3981L46.8612 23.3807H50.1779ZM55.4478 30V15.4545H58.5231V21.8679H58.7148L63.9492 15.4545H67.6353L62.2376 21.9673L67.6992 30H64.0202L60.0359 24.0199L58.5231 25.8665V30H55.4478ZM78.2212 15.4545H81.2965V24.9006C81.2965 25.9612 81.0432 26.8892 80.5366 27.6847C80.0347 28.4801 79.3316 29.1004 78.4272 29.5455C77.5228 29.9858 76.4693 30.206 75.2667 30.206C74.0593 30.206 73.0034 29.9858 72.0991 29.5455C71.1947 29.1004 70.4916 28.4801 69.9897 27.6847C69.4878 26.8892 69.2369 25.9612 69.2369 24.9006V15.4545H72.3121V24.6378C72.3121 25.1918 72.4329 25.6842 72.6744 26.1151C72.9206 26.5459 73.2662 26.8845 73.7113 27.1307C74.1564 27.3769 74.6748 27.5 75.2667 27.5C75.8633 27.5 76.3817 27.3769 76.8221 27.1307C77.2672 26.8845 77.6104 26.5459 77.8519 26.1151C78.0981 25.6842 78.2212 25.1918 78.2212 24.6378V15.4545ZM91.7173 19.6378C91.6605 19.0649 91.4167 18.6198 90.9858 18.3026C90.5549 17.9853 89.9702 17.8267 89.2315 17.8267C88.7296 17.8267 88.3059 17.8977 87.9602 18.0398C87.6146 18.1771 87.3494 18.3688 87.1648 18.6151C86.9848 18.8613 86.8949 19.1406 86.8949 19.4531C86.8854 19.7135 86.9399 19.9408 87.0582 20.1349C87.1813 20.3291 87.3494 20.4972 87.5625 20.6392C87.7756 20.7765 88.0218 20.8973 88.3011 21.0014C88.5805 21.1009 88.8788 21.1861 89.196 21.2571L90.5028 21.5696C91.1373 21.7116 91.7197 21.901 92.25 22.1378C92.7803 22.3745 93.2396 22.6657 93.6278 23.0114C94.016 23.357 94.317 23.7642 94.53 24.233C94.748 24.7017 94.859 25.2391 94.864 25.8452C94.859 26.7353 94.632 27.5071 94.182 28.1605C93.7367 28.8092 93.0928 29.3134 92.25 29.6733C91.4119 30.0284 90.401 30.206 89.2173 30.206C88.0431 30.206 87.0204 30.026 86.1491 29.6662C85.2827 29.3063 84.6056 28.7737 84.1179 28.0682C83.6349 27.358 83.3816 26.4796 83.358 25.4332H86.3338C86.367 25.9209 86.5066 26.3281 86.7528 26.6548C87.0038 26.9768 87.3376 27.2206 87.7543 27.3864C88.1757 27.5473 88.6515 27.6278 89.1818 27.6278C89.7027 27.6278 90.1548 27.5521 90.5384 27.4006C90.9266 27.2491 91.2273 27.0384 91.4403 26.7685C91.6534 26.4986 91.7599 26.1884 91.7599 25.8381C91.7599 25.5114 91.6629 25.2367 91.4688 25.0142C91.2794 24.7917 91 24.6023 90.6307 24.446C90.2661 24.2898 89.8187 24.1477 89.2884 24.0199L87.7045 23.6222C86.4782 23.3239 85.5099 22.8575 84.7997 22.223C84.0895 21.5885 83.7367 20.7339 83.7415 19.6591C83.7367 18.7784 83.9711 18.009 84.4446 17.3509C84.9228 16.6927 85.5786 16.179 86.4119 15.8097C87.2453 15.4403 88.1922 15.2557 89.2528 15.2557C90.3324 15.2557 91.2746 15.4403 92.0795 15.8097C92.8892 16.179 93.5189 16.6927 93.9688 17.3509C94.419 18.009 94.651 18.7713 94.665 19.6378H91.7173Z" fill="black"/>
</svg>
